<?xml version="1.0" encoding="utf-8"?>
<!-- Uploaded to: SVG Repo, www.svgrepo.com, Generator: SVG Repo Mixer Tools -->
<svg fill="#000000" width="800px" height="800px" viewBox="-6.5 0 32 32" version="1.1" xmlns="http://www.w3.org/2000/svg">
<title>braceright</title>
<path d="M14.125 15.031v-2.531c-0.781-0.031-1.406-0.219-1.906-0.594-0.469-0.344-0.844-0.875-1.031-1.563-0.219-0.688-0.313-2-0.313-3.906-0.031-1.844-0.063-3.156-0.156-3.844-0.125-0.969-0.406-1.75-0.844-2.313-0.406-0.594-0.938-1.031-1.656-1.25-0.469-0.188-1.25-0.281-2.281-0.281h-0.844v2.469h0.469c0.938 0 1.563 0.094 1.875 0.313s0.531 0.625 0.656 1.156c0.094 0.375 0.125 1.719 0.125 4.031 0 2.219 0.281 3.75 0.75 4.719s1.313 1.75 2.531 2.313c-0.906 0.375-1.656 0.938-2.156 1.656s-0.844 1.719-1 2.969c-0.063 0.688-0.125 2.25-0.125 4.75 0 1.344-0.156 2.219-0.5 2.594s-1.063 0.625-2.156 0.625h-0.469v2.406h0.844c0.906 0 1.563-0.031 1.969-0.156 0.688-0.188 1.25-0.5 1.656-0.938 0.438-0.406 0.781-1.031 1-1.781 0.188-0.75 0.313-1.969 0.313-3.688 0.031-1.719 0.031-2.813 0.063-3.281 0.031-1 0.219-1.75 0.5-2.281 0.25-0.5 0.625-0.938 1.125-1.25 0.375-0.219 0.938-0.344 1.563-0.344z"></path>
</svg>